<svg xmlns="http://www.w3.org/2000/svg" viewBox="0 0 64 64"><path d="M27 6h10a1 1 0 0 0 0-2H27a1 1 0 0 0 0 2z" style="fill:#1b1a1e"/><path d="M51 4h-8.382L40.894.553A1 1 0 0 0 40 0H24a1 1 0 0 0-.894.553L21.381 4H13a5.006 5.006 0 0 0-5 5v50a5.006 5.006 0 0 0 5 5h38a5.006 5.006 0 0 0 5-5V9a5.006 5.006 0 0 0-5-5zM22 6a1 1 0 0 0 .894-.553L24.619 2h14.764l1.724 3.447A1 1 0 0 0 42 6h4v2H18V6zm-5 4h30a1 1 0 0 0 1-1V6h2v52H14V6h2v3a1 1 0 0 0 1 1zm37 49a3.003 3.003 0 0 1-3 3H13a3.003 3.003 0 0 1-3-3V9a2.995 2.995 0 0 1 2-2.816V59a1 1 0 0 0 1 1h38a1 1 0 0 0 1-1V6.184A2.995 2.995 0 0 1 54 9z" style="fill:#1b1a1e"/><path d="M21 31h-4a1 1 0 0 0-1 1v4a1 1 0 0 0 1 1h4a1 1 0 0 0 1-1v-4a1 1 0 0 0-1-1zm-1 4h-2v-2h2zM21 39h-4a1 1 0 0 0-1 1v4a1 1 0 0 0 1 1h4a1 1 0 0 0 1-1v-4a1 1 0 0 0-1-1zm-1 4h-2v-2h2zM21 47h-4a1 1 0 0 0-1 1v4a1 1 0 0 0 1 1h4a1 1 0 0 0 1-1v-4a1 1 0 0 0-1-1zm-1 4h-2v-2h2zM21 23h-4a1 1 0 0 0-1 1v4a1 1 0 0 0 1 1h4a1 1 0 0 0 1-1v-4a1 1 0 0 0-1-1zm-1 4h-2v-2h2zM16 20a1 1 0 0 0 1 1h4a1 1 0 0 0 1-1v-4a1 1 0 0 0-1-1h-4a1 1 0 0 0-1 1zm2-3h2v2h-2zM25 17h22a1 1 0 0 0 0-2H25a1 1 0 0 0 0 2zM25 21h11a1 1 0 0 0 0-2H25a1 1 0 0 0 0 2zM25 25h22a1 1 0 0 0 0-2H25a1 1 0 0 0 0 2zM25 29h11a1 1 0 0 0 0-2H25a1 1 0 0 0 0 2zM25 33h22a1 1 0 0 0 0-2H25a1 1 0 0 0 0 2zM25 37h11a1 1 0 0 0 0-2H25a1 1 0 0 0 0 2zM25 41h22a1 1 0 0 0 0-2H25a1 1 0 0 0 0 2zM25 45h11a1 1 0 0 0 0-2H25a1 1 0 0 0 0 2zM25 49h22a1 1 0 0 0 0-2H25a1 1 0 0 0 0 2zM25 53h11a1 1 0 0 0 0-2H25a1 1 0 0 0 0 2z" style="fill:#1b1a1e"/></svg>