<svg xmlns="http://www.w3.org/2000/svg" viewBox="0 0 512 512" style="enable-background:new 0 0 512 512" xml:space="preserve"><path style="fill:#f4b846" d="M424.11 130.133 256.002 8.084 8.084 188.074h108.628l19.867-61.722 191.756 61.722h175.581l-59.574-43.252M328.335 188.074l121.648 39.156-193.981 140.831L96.135 251.999l20.577-63.925H8.084v315.842h495.832V188.074z"/><g style="opacity:.1"><path style="fill:#231f20" d="M8.084 188.071H33.33v315.845H8.084z"/></g><path style="fill:#dd8536" d="M116.712 188.074H8.084l247.918 179.987L96.135 251.999z"/><path style="fill:#dd8536" d="m328.335 188.074 121.648 39.156-193.981 140.831 247.914-179.987z"/><path style="fill:#6ac6d8" d="m96.135 251.999 159.867 116.062L449.983 227.23 136.579 126.352z"/><path style="fill:#231f20" d="M512 188.098v-.038c0-.029-.004-.057-.004-.086a8.173 8.173 0 0 0-.08-1.009c-.008-.051-.008-.101-.015-.153-.006-.042-.019-.083-.027-.125a8.191 8.191 0 0 0-.262-1.089l-.005-.02c-.007-.018-.016-.034-.022-.053a8.025 8.025 0 0 0-.416-1.008c-.018-.038-.031-.078-.051-.114l-.038-.068a8.014 8.014 0 0 0-.563-.917c-.022-.03-.04-.063-.061-.094-.032-.044-.07-.083-.102-.126a8.084 8.084 0 0 0-.676-.791l-.036-.04-.015-.015-.03-.028a8.391 8.391 0 0 0-.831-.708c-.035-.026-.064-.058-.098-.083l-.001-.001-59.575-43.253a8.083 8.083 0 0 0-11.292 1.793 8.084 8.084 0 0 0 1.793 11.291l39.429 28.627H329.606l-190.55-61.333a8.187 8.187 0 0 0-1.601-.342c-3.736-.41-7.375 1.842-8.573 5.561L110.82 179.99H32.98L256.002 18.075l163.358 118.6a8.087 8.087 0 0 0 11.292-1.793c2.624-3.613 1.819-8.668-1.793-11.292L260.751 1.542a8.082 8.082 0 0 0-9.499 0L3.335 181.533l-.001.001c-.034.025-.064.057-.098.083a8.24 8.24 0 0 0-.831.708l-.03.028-.014.015-.039.042a8.19 8.19 0 0 0-.675.789c-.032.043-.07.082-.101.125-.022.03-.04.063-.061.094a8.014 8.014 0 0 0-.563.917l-.038.068c-.019.038-.032.077-.051.114-.16.324-.301.66-.416 1.007-.006.018-.016.035-.023.053l-.005.02a8.133 8.133 0 0 0-.263 1.09c-.008.042-.019.082-.026.124-.009.051-.009.102-.016.153a8.372 8.372 0 0 0-.08 1.009c0 .029-.004.057-.004.086V503.916c0 .044.005.087.006.132.002.147.012.292.023.439.009.123.016.246.03.368.016.136.039.271.061.405.022.128.041.258.069.384.027.125.063.249.096.373.036.132.068.263.11.391.039.119.085.235.128.352.049.129.096.26.151.385.049.112.106.221.16.331.063.127.124.255.193.378.057.102.122.203.184.303.078.126.156.252.24.374.065.093.135.181.204.272.095.124.19.248.291.366.027.031.049.065.077.096.045.051.095.094.141.143.119.128.24.252.366.373a8.251 8.251 0 0 0 .627.536c.096.074.192.148.291.218.127.089.26.172.392.255.1.061.198.126.301.183.148.083.3.156.453.23.092.043.181.092.274.132.185.08.376.149.567.216.065.023.128.05.194.071.245.078.494.143.748.198l.045.012a8.432 8.432 0 0 0 1.662.168h495.832c.57 0 1.125-.06 1.661-.172l.045-.012c.254-.055.503-.12.748-.198.066-.02.128-.049.194-.071.192-.067.383-.136.568-.216.093-.04.182-.087.273-.132.153-.073.306-.148.454-.23.102-.057.202-.121.302-.183.133-.082.265-.165.392-.254.099-.069.195-.143.291-.217a8.15 8.15 0 0 0 .629-.536c.126-.12.247-.244.365-.372.046-.05.097-.093.141-.143.027-.031.05-.065.077-.096.101-.119.196-.24.29-.364.069-.092.14-.181.205-.274.084-.121.162-.246.239-.372.063-.101.128-.203.185-.305.069-.123.13-.251.192-.378.054-.11.11-.219.16-.331.055-.127.102-.258.151-.388.044-.116.089-.232.128-.35.042-.128.074-.26.11-.391.033-.124.069-.248.096-.373.028-.127.047-.257.069-.385.023-.134.045-.268.061-.403.014-.122.022-.247.03-.371.01-.146.019-.29.022-.435.001-.044.006-.087.006-.132V188.098zM16.168 203.933l175.396 127.336L16.168 486.004V203.933zm309.69-8.163 106.486 34.276-37.068 26.912-156.256-50.297c-4.246-1.362-8.804.968-10.173 5.219a8.085 8.085 0 0 0 5.219 10.173l145.001 46.674-19.811 14.382-186.926-60.168a8.085 8.085 0 0 0-4.954 15.392l175.671 56.544-19.81 14.381-24.31-7.826a8.085 8.085 0 0 0-4.954 15.392l13.053 4.202-1.423 1.034-49.601 36.011-150.377-109.172 18.782-58.348 17.39-54.026 184.061 59.245zM204.971 341.004l46.282 33.6c.035.025.072.041.107.066.314.22.637.424.974.595.009.004.017.011.026.015l.012.006c.34.17.692.309 1.05.43.115.039.232.07.349.103.252.072.507.133.764.18.123.023.244.047.366.064a7.92 7.92 0 0 0 1.055.081l.039.003.006-.001.006.001c.299 0 .597-.019.896-.053.061-.008.121-.021.182-.029a10.469 10.469 0 0 0 .287-.046c.14-.024.279-.046.418-.078.088-.019.174-.047.261-.07.135-.036.27-.066.403-.108l.019-.005c.058-.018.114-.043.172-.063.112-.039.221-.085.332-.128.111-.044.223-.08.332-.128l.029-.014c.038-.017.075-.033.112-.052.024-.012.046-.028.07-.039.039-.018.079-.035.116-.054l.037-.02c.198-.101.39-.216.58-.333.039-.024.08-.041.119-.066.011-.006.019-.013.029-.019l.063-.041.081-.054c.069-.047.136-.095.204-.143l46.279-33.599 175.503 154.826H29.469l175.502-154.827zm115.467-9.732 80.981-58.793.006-.004 53.308-38.702c.016-.012.03-.023.046-.033l41.052-29.806v282.07L320.438 331.272zm158.583-135.113-30.466 22.118-68.717-22.118h99.183zm-373.405 0-10.908 33.889-2.851 8.855-58.877-42.744h72.636z"/><path style="fill:#231f20" d="m180.824 204.869 29.455 9.48c.824.264 1.658.39 2.479.39a8.085 8.085 0 0 0 2.475-15.782l-29.455-9.48a8.088 8.088 0 0 0-10.173 5.219 8.086 8.086 0 0 0 5.219 10.173zM153.926 271.748l116.657 37.548c.824.264 1.658.39 2.479.39a8.085 8.085 0 0 0 2.475-15.782L158.88 256.356c-4.247-1.362-8.804.968-10.173 5.219a8.086 8.086 0 0 0 5.219 10.173z"/><g style="opacity:.1"><path transform="scale(-1) rotate(17.757 1267.403 -836.479)" style="fill:#231f20" d="M122.052 134.241h17.247v127.51h-17.247z"/></g></svg>