<svg xmlns="http://www.w3.org/2000/svg" viewBox="0 0 32 32"><g data-name="delivery plane"><path d="M26.18 16.05a.12.12 0 0 1 0-.13l3-3.66a3.72 3.72 0 0 0-5.78-4.69l-3 3.65a.11.11 0 0 1-.12 0L15.78 10a1.13 1.13 0 0 0-.52 0 1.19 1.19 0 0 0-.26 0 1 1 0 0 0-1 1v3H4V4h2v3.27A1.74 1.74 0 0 0 7.73 9h2.54A1.74 1.74 0 0 0 12 7.27V4h2v3a1 1 0 0 0 2 0V3.92A1.92 1.92 0 0 0 14.08 2H3.92A1.92 1.92 0 0 0 2 3.92v10.16A1.92 1.92 0 0 0 3.92 16h10.16a1.87 1.87 0 0 0 .34 0l1.41.9L14 19.08a.22.22 0 0 1-.11.05L10.63 19a2.32 2.32 0 0 0-1.91.86 2.35 2.35 0 0 0 1.17 3.74l2.07.59a5.35 5.35 0 0 1 3.25 2.64l1 1.91A2.36 2.36 0 0 0 18.06 30h.23a2.33 2.33 0 0 0 1.82-.87 2.36 2.36 0 0 0 .46-2.05l-.8-3.19a.14.14 0 0 1 0-.12l1.79-2.2 1.12 1.13a1 1 0 0 0 1.42 0 1 1 0 0 0 0-1.41l-1.51-1.54a1.47 1.47 0 0 0-1.14-.44 1.49 1.49 0 0 0-1.09.55l-2.15 2.64a2.17 2.17 0 0 0-.42 1.87l.8 3.19a.35.35 0 0 1-.38.43.34.34 0 0 1-.27-.19L17 25.9a7.36 7.36 0 0 0-4.47-3.63l-2.07-.59a.34.34 0 0 1-.23-.23.33.33 0 0 1 .06-.33.36.36 0 0 1 .28-.12l3.29.13a2.17 2.17 0 0 0 1.74-.79l2.15-2.64a1.48 1.48 0 0 0 .32-1.18 1.52 1.52 0 0 0-.67-1l-1.45-.93a1.85 1.85 0 0 0 .07-.48v-1.94l3.77 1a2.12 2.12 0 0 0 2.2-.71l3-3.65a1.72 1.72 0 0 1 2.42-.25A1.74 1.74 0 0 1 28 9.74a1.7 1.7 0 0 1-.39 1.26l-3 3.65a2.14 2.14 0 0 0-.25 2.3l3.26 6.42a.55.55 0 0 1-.06.59.51.51 0 0 1-.39.19.54.54 0 0 1-.41-.16 1 1 0 0 0-1.42 0 1 1 0 0 0 0 1.41 2.53 2.53 0 0 0 1.81.76h.12a2.53 2.53 0 0 0 2.14-3.68zM10 4v3H8V4z"/><path d="M7 11H6a1 1 0 0 0 0 2h1a1 1 0 0 0 0-2z"/></g></svg>