<svg xmlns="http://www.w3.org/2000/svg" viewBox="0 0 32 32"><g data-name="cargo ship"><path d="M14 25h5.43a4.64 4.64 0 0 0 2.57-.69 4.36 4.36 0 0 0 .76-.6A4.62 4.62 0 0 0 24 21h5a1 1 0 0 0 0-2h-1v-5a1 1 0 0 0-2 0v5h-2v-9a1 1 0 0 0-1-1H6V4h7v2a1 1 0 0 0 2 0V3a1 1 0 0 0-1-1H5a1 1 0 0 0-1 1v20H3a1 1 0 0 0-.93 1.37l1.82 4.54A1.73 1.73 0 0 0 5.5 30h20.91a1.73 1.73 0 0 0 1.69-1.36l1-4.42a1 1 0 0 0-.76-1.2 1 1 0 0 0-1.2.76L26.2 28H5.68l-1.2-3H14zm1-14h7v5h-7zm0 7h7v2.11a2.76 2.76 0 0 1-.72 2.18 2.25 2.25 0 0 1-.41.34 2.72 2.72 0 0 1-1.45.37H15zm-9-7h7v5H6zm0 7h7v5H6z"/><path d="M9 13H8a1 1 0 0 0 0 2h1a1 1 0 0 0 0-2zM18 13h-1a1 1 0 0 0 0 2h1a1 1 0 0 0 0-2zM18 20h-1a1 1 0 0 0 0 2h1a1 1 0 0 0 0-2zM9 20H8a1 1 0 0 0 0 2h1a1 1 0 0 0 0-2zM8 6a1 1 0 0 0 0 2h1a1 1 0 0 0 0-2z"/></g></svg>