<svg xmlns="http://www.w3.org/2000/svg" viewBox="0 0 32 32"><path d="m29.22 15.7-3.74-4.49A3.38 3.38 0 0 0 22.89 10H21V7.49A2.5 2.5 0 0 0 18.51 5h-14A2.5 2.5 0 0 0 2 7.49v14.08A2.44 2.44 0 0 0 4 24a4 4 0 0 0 8 0h8a4 4 0 0 0 8 0 2.19 2.19 0 0 0 2-2.17v-4a3.4 3.4 0 0 0-.78-2.13zM8 26a2 2 0 0 1-2-2h4a2 2 0 0 1-2 2zm16 0a2 2 0 0 1-2-2h4a2 2 0 0 1-2 2zm4-4.19a.19.19 0 0 1-.19.19H4.43a.43.43 0 0 1-.43-.43V7.49A.49.49 0 0 1 4.49 7h14a.49.49 0 0 1 .49.49V19a1 1 0 0 0 2 0v-7h1.89a1.36 1.36 0 0 1 1.05.49L27.69 17a1.4 1.4 0 0 1 .31.87z"/></svg>