<svg xmlns="http://www.w3.org/2000/svg" viewBox="0 0 32 32"><path d="M28 24a1 1 0 0 0 1-1V12.71a3.16 3.16 0 0 0-1.23-2.49l-9.91-7.59a3.06 3.06 0 0 0-3.72 0l-9.92 7.59A3.18 3.18 0 0 0 3 12.71v14.17A3.1 3.1 0 0 0 6.08 30h19.84A3.1 3.1 0 0 0 29 26.88a1 1 0 1 0-2 0A1.1 1.1 0 0 1 25.92 28H24V14.41A2.41 2.41 0 0 0 21.59 12H10.41A2.41 2.41 0 0 0 8 14.41V28H6.08A1.1 1.1 0 0 1 5 26.88V12.71a1.13 1.13 0 0 1 .44-.9l9.92-7.59a1.05 1.05 0 0 1 1.28 0l9.92 7.59a1.16 1.16 0 0 1 .44.9V23a1 1 0 0 0 1 1zm-18-6h12v2H10zm0-3.59a.42.42 0 0 1 .41-.41h11.18a.42.42 0 0 1 .41.41V16H10zM10 22h12v2h-9a1 1 0 0 0 0 2h9v2H10z"/></svg>